inDegrees=no
num_controls=7
num_derivatives=13
num_iterations=18
num_multipliers=7
num_parameters=0
num_slacks=7
num_states=26
objective=0.461984
objective_accelerations=0.000000
objective_balance=0.009966
objective_effort=0.015796
objective_height=0.436222
objective_ligament=0.000000
solver_duration=267.189348
status=Solve_Succeeded
success=true
DataType=double
version=3
OpenSimVersion=4.5
endheader
time	/jointset/ground_pelvis/pelvis_tilt/value	/jointset/ground_pelvis/pelvis_tx/value	/jointset/ground_pelvis/pelvis_ty/value	/jointset/hip_l/hip_flexion_l/value	/jointset/hip_l/hip_adduction_l/value	/jointset/hip_l/hip_rotation_l/value	/jointset/back/lumbar_extension/value	/jointset/patellofemoral_l/patellar_flexion_l/value	/jointset/knee_l/knee_flexion_l/value	/jointset/knee_l/knee_adduction_l/value	/jointset/knee_l/knee_rotation_l/value	/jointset/ankle_l/ankle_angle_l/value	/jointset/subtalar_l/subtalar_angle_l/value	/jointset/ground_pelvis/pelvis_tilt/speed	/jointset/ground_pelvis/pelvis_tx/speed	/jointset/ground_pelvis/pelvis_ty/speed	/jointset/hip_l/hip_flexion_l/speed	/jointset/hip_l/hip_adduction_l/speed	/jointset/hip_l/hip_rotation_l/speed	/jointset/back/lumbar_extension/speed	/jointset/patellofemoral_l/patellar_flexion_l/speed	/jointset/knee_l/knee_flexion_l/speed	/jointset/knee_l/knee_adduction_l/speed	/jointset/knee_l/knee_rotation_l/speed	/jointset/ankle_l/ankle_angle_l/speed	/jointset/subtalar_l/subtalar_angle_l/speed	/forceset/tau_hip_flexion_l	/forceset/tau_hip_adduction_l	/forceset/tau_hip_rotation_l	/forceset/tau_knee_flexion_l	/forceset/tau_ankle_angle_l	/forceset/tau_subtalar_angle_l	/forceset/tau_lumbar_extension	lambda_cid13_p0	lambda_cid13_p1	lambda_cid13_p2	lambda_cid13_p3	lambda_cid13_p4	lambda_cid13_p5	lambda_cid14_p0	/jointset/ground_pelvis/pelvis_tilt/accel	/jointset/ground_pelvis/pelvis_tx/accel	/jointset/ground_pelvis/pelvis_ty/accel	/jointset/hip_l/hip_flexion_l/accel	/jointset/hip_l/hip_adduction_l/accel	/jointset/hip_l/hip_rotation_l/accel	/jointset/back/lumbar_extension/accel	/jointset/patellofemoral_l/patellar_flexion_l/accel	/jointset/knee_l/knee_flexion_l/accel	/jointset/knee_l/knee_adduction_l/accel	/jointset/knee_l/knee_rotation_l/accel	/jointset/ankle_l/ankle_angle_l/accel	/jointset/subtalar_l/subtalar_angle_l/accel	gamma_cid13_p0	gamma_cid13_p1	gamma_cid13_p2	gamma_cid13_p3	gamma_cid13_p4	gamma_cid13_p5	gamma_cid14_p0
1	0.1354556784247926	0.02560900963686544	0.9232090492827364	0.1281186191073	-0.1492177151059789	-0.05732220351397956	-0.4362450824603406	0.05725402153995941	0.05725402153996374	0.06217444088241789	-0.05101827118588496	-0.02121802096390985	0.1032149666747066	-0.0360135094971298	-0.002791167851675525	-0.003041441631075789	0.04356206708284619	0.003224026295133223	-0.006125029671043163	0.007626751901684844	-0.0008459443945125218	-0.0008459443945047871	0.005764217926928572	0.005964383381531775	-0.007798546474291469	0.0009325605800910193	0.03817226374862059	0.06059394286451828	0.01874492782600177	-0.2002592748218839	0.2171781536054832	-0.04710627208961129	0.06215502559959472	24.67241268544483	23.28298828012152	-12.27532430053983	2.163012799223575	-630.9404778855587	-14.39045665532205	-34.77313019070458	-0.4962211999912589	-0.06739618130877575	-0.0323700004226857	0.5205197518004085	0.1867620572271443	-0.221460751376554	0.3458489139122898	-0.2404594905622375	-0.2404594905622374	0.3358131075442301	0.1567173143306262	-0.2408477023364376	0.1178822570932872	-5.99324449950309e-10	-1.638729146340125e-09	1.722385187672039e-09	-4.398637409940975e-10	7.460259181094899e-11	-1.875283894932625e-09	-4.94130120160634e-10
1.01	0.1350701451713792	0.02557777658091491	0.9231769476284696	0.1285811395986067	-0.1491763020393689	-0.0573944486966586	-0.4361505812552354	0.05723405892921991	0.05723405892897853	0.06224858719051933	-0.05095075510955036	-0.02130781467889808	0.1032300897073858	-0.04116106702640224	-0.00345104440205394	-0.0033859335001704	0.04903160970176635	0.005035669513058323	-0.008315386166254679	0.01137629670744403	-0.003109462012480346	-0.003109462012480719	0.009022784540536745	0.007541378642429594	-0.01014601315760263	0.002072992397417984	0.03782614799233939	0.06061798329278453	0.01871217290382453	-0.1999536486715834	0.2169995253370511	-0.04710585774155709	0.062446950411595	24.61354468571723	23.27736951181031	-12.2564425980811	2.143428204819628	-631.0077330818971	-14.38572243982955	-34.77312846836348	-0.5342121339000799	-0.06462366952752288	-0.0365454429865603	0.5736080782963813	0.1749277320100634	-0.2165303996742814	0.4049284009478712	-0.213730406245761	-0.2137304062462651	0.3145395384189512	0.1585722349209508	-0.2295688206555015	0.1092656750719543	-7.55315721165331e-10	-1.919283378384432e-09	2.114849154938936e-09	-5.898008216340319e-10	-1.038586782356991e-10	-2.20157714596259e-09	-6.251153341975521e-10
1.02	0.1346310985219244	0.02554007670393935	0.9231411897229521	0.1291010428283862	-0.1491174600845986	-0.05748833890462918	-0.4360155003746408	0.05719257464022091	0.05719257464023379	0.06235405138474227	-0.05086739275863274	-0.02142065759446888	0.1032560454644405	-0.046716188735746	-0.004084532056683197	-0.003772691881219303	0.05503861477527022	0.006709803848480007	-0.01045403470483487	0.01574268699471424	-0.005150279983736225	-0.005150279983744716	0.01202779516008789	0.009133638021253462	-0.01240838661400244	0.003099105455458314	0.03748003223418685	0.06064202372003315	0.01867941799063682	-0.1996480225224912	0.2168208970676712	-0.04710544339530987	0.06273887522289105	24.5516977999932	23.27191961126715	-12.23718492429177	2.143254123942289	-631.1058731353983	-14.38143953494374	-34.7726435946655	-0.57773403600562	-0.06211840215887324	-0.04082330281353851	0.6280122427171267	0.1592602807264795	-0.211119160050349	0.4692180102141601	-0.195919561219833	-0.195919561219833	0.2851019087328456	0.1597701379158937	-0.2238290569540732	0.09501850523599417	-8.81872910465676e-10	-1.908581336553353e-09	2.347551986659615e-09	-7.020692082469987e-10	-4.535430300311588e-10	-2.364609038610046e-09	-7.183258441408735e-10
1.03	0.1341343691920899	0.02549619824151183	0.9231013483739448	0.1296837571241573	-0.1490426333634836	-0.05760338631220692	-0.4358334385308266	0.05713176283957253	0.05713176283966243	0.06248815858594106	-0.05076799040850541	-0.02155569571447697	0.1032916217598192	-0.05271398937432013	-0.004684477822137075	-0.004204055039979688	0.06161217574363587	0.008226859607134929	-0.01254549418135924	0.02080353200555908	-0.006969044361041487	-0.006969044361045004	0.01474052130548062	0.01075024269482909	-0.01458143069515854	0.003992340562481421	0.03702404388022779	0.06068047437982015	0.01863666410669313	-0.1992378450273911	0.2165969899270318	-0.04710358943076691	0.06312430263813297	24.47641215023417	23.26398742130202	-12.21272257272909	2.119073965843113	-631.2109300894001	-14.37540471946187	-34.77174310075451	-0.6234502143694478	-0.0579304358992744	-0.04556455348399662	0.6882174161156105	0.1436259545232922	-0.2066669262877397	0.5445952813139543	-0.168399347111855	-0.16839934711082	0.2563894330359335	0.1631167866727028	-0.211371285341806	0.08290406468024764	-1.008129751991381e-09	-1.894907291927626e-09	2.578624602711456e-09	-8.139532204311186e-10	-8.049745561301787e-10	-2.525974999029109e-09	-8.111508979199742e-10
1.04	0.1335751324285213	0.02544652076699992	0.9230569390471384	0.1303354449081024	-0.1489534965387085	-0.05773904983147063	-0.4355967527299331	0.05705405450103628	0.05705405450104829	0.06264779934170756	-0.05065231978082307	-0.02171193011565343	0.1033354160165206	-0.05921767547646667	-0.005244334473558849	-0.004686287441019792	0.06883331240075263	0.009571824609277892	-0.01457725705123051	0.02666747840808586	-0.008529587583379026	-0.008529587583377561	0.01713450607461889	0.01238729355219884	-0.01664764284212196	0.004742697719305866	0.03656805552710752	0.06071892503992031	0.01859391022102426	-0.1988276675318991	0.2163730827866363	-0.04710173546573826	0.06350973005382145	24.3984965924208	23.25604435784362	-12.18772008746996	2.111955691584695	-631.3438344378445	-14.3702310772074	-34.77049393075173	-0.678911128720215	-0.05410057935233975	-0.05099715126947239	0.7575273804672913	0.1248421294240505	-0.1991798387197551	0.6298382885502875	-0.1442753302262877	-0.1442753302262877	0.2213536334818706	0.1638593746747584	-0.2024626701154038	0.06644291519624605	-1.109714175496152e-09	-1.617830118123312e-09	2.719244780707469e-09	-8.922494108756007e-10	-1.250642038252934e-09	-2.515386869562503e-09	-8.766009776646072e-10
1.05	0.1329484268926638	0.02539146883243286	0.9230074683957061	0.1310623745101119	-0.1488517959658428	-0.05789478122838917	-0.4352974037710887	0.05696190758559578	0.05696190758562178	0.06282972636893544	-0.0505201420254535	-0.02188830863568	0.1033859692305682	-0.06620557758699804	-0.005757148573646836	-0.005215838203319372	0.07665375934419166	0.01073836113180212	-0.01655913704355546	0.03334543537091154	-0.0098593018051625	-0.009859301805161813	0.01919523466801334	0.01405137655485219	-0.01860829616910905	0.005343480645577606	0.03600472788539866	0.06077337737567683	0.01854033565072945	-0.1983180382720308	0.2161059250271086	-0.04709905214809309	0.06397227855252242	24.30852775627353	23.24570279819572	-12.15759634750938	2.08174403154616	-631.4709711881167	-14.36287256608029	-34.7689706011448	-0.7210520264638197	-0.04853643967271713	-0.05513368675892187	0.8094756563108105	0.1080698330904539	-0.1962097856217243	0.7082427009594713	-0.1212452249275975	-0.1212452249273483	0.1900829141938563	0.1681501559471357	-0.1899021272224433	0.05322620504446165	-1.210527585937769e-09	-1.33252159653217e-09	2.857038320014238e-09	-9.694959818907193e-10	-1.69925439400143e-09	-2.49942517478697e-09	-9.411955894706632e-10
1.06	0.1322493778808504	0.02533155583400032	0.9229524623070455	0.1318705430426002	-0.1487393279439407	-0.05807003496643494	-0.4349269815824452	0.05685767837662119	0.056857678376633	0.06303059077056579	-0.05037122996122636	-0.02208370078162469	0.1034417963186226	-0.07368637066737765	-0.006216547246654258	-0.005793374886670906	0.08508109848880102	0.01172531443127268	-0.01848172528119989	0.04088212436608055	-0.01094604629787249	-0.01094604629787257	0.02092198093842181	0.01573415527295757	-0.02045036802537209	0.005797472519918061	0.03544140024405547	0.06082782971151004	0.01848676108063177	-0.1978084090120692	0.2158387672676141	-0.04709636883036745	0.06443482705147126	24.21630168373416	23.23514922919931	-12.12674519961098	2.065930741047422	-631.6228766068145	-14.35687195285118	-34.7672385344869	-0.7774893226900107	-0.04341749393607546	-0.06059433547984911	0.8789058207012647	0.08892548481326674	-0.1873214877836793	0.8015846950187008	-0.09568138441159812	-0.09568138441159812	0.1545571688845642	0.1675985177652135	-0.1787463759704162	0.03708470480996385	-1.257772565562038e-09	-8.880964478998676e-10	2.937117555294442e-09	-1.029547720760583e-09	-2.162524433423745e-09	-2.370620861471031e-09	-9.720292947224965e-10
1.07	0.1314732796605344	0.02526733612831964	0.9228914684536214	0.1327656522133599	-0.1486178758100366	-0.05826427137919276	-0.4344770519432831	0.05674362674245111	0.05674362674248776	0.06324706460748539	-0.05020537496309338	-0.02229694628134463	0.1035014349998939	-0.08159992598998694	-0.006616573395894092	-0.006411581633562108	0.09401772033847577	0.01253777358633622	-0.02035663698971936	0.04923933059483927	-0.01183184357233747	-0.01183184357233741	0.02232175713837489	0.01743870572178578	-0.02217824456490017	0.006108688669733986	0.03478098514575123	0.06089847402670528	0.01842207740727244	-0.1972106009207122	0.2155335929399929	-0.04709357443919103	0.06495314583012063	24.11425041410561	23.2224270253751	-12.09116128794308	2.029608386210942	-631.7574861623176	-14.3483229221573	-34.76536564134959	-0.8082869677545228	-0.03667231942720642	-0.0633622514523864	0.9125876104828344	0.07330493915407328	-0.1862384603778987	0.8731176554319631	-0.08016315456387896	-0.08016315456350091	0.1250337486922901	0.1721620751253838	-0.1667353770155752	0.02490354006358431	-1.302168160568363e-09	-4.352076488930348e-10	3.014126880785999e-09	-1.088684840899316e-09	-2.626574136871261e-09	-2.235814281211452e-09	-1.001067207072509e-09
1.08	0.130616046220843	0.02519944073234722	0.9228241068513009	0.1337524370513311	-0.1484891193230043	-0.05847698939860801	-0.433939484428101	0.05662169028446616	0.05662169028447797	0.06347600538710037	-0.0500224187069564	-0.02252685596328018	0.1035635385366661	-0.08991341454100506	-0.006951685305006419	-0.007066924665946607	0.1034162319234591	0.01318618507343258	-0.02217804661791016	0.05840969956861412	-0.01252301107079701	-0.0125230110707968	0.02341536946398281	0.01915440683796067	-0.02378320446728318	0.006290443619394492	0.03412057004788081	0.0609691183420131	0.01835739373375416	-0.1966127928292146	0.2152284186124397	-0.04709078004786975	0.06547146460904206	24.01028424572318	23.20930667537131	-12.05467614988872	2.004997625067907	-631.914238576337	-14.34168236182454	-34.76340576592439	-0.8574759683719495	-0.03043464591038253	-0.06802159257849104	0.9712837677628547	0.05611595121976548	-0.1766210717179713	0.9642172440216834	-0.05675542921052659	-0.05675542921052658	0.09332439401539547	0.1698286512346031	-0.1541630485411781	0.01119246477884574	-1.284652605591476e-09	6.150119507983218e-11	3.049981408465566e-09	-1.1476112855409e-09	-3.060170912271694e-09	-2.055391349384278e-09	-9.979029578347573e-10
